Coordinates
version=1
nRows=24
nColumns=22
inDegrees=yes

Units are S.I. units (second, meters, Newtons, ...)
If the header above contains a line with 'inDegrees', this indicates whether rotational values are in degrees (yes) or radians (no).

endheader
time	pelvis_tilt	pelvis_list	pelvis_rotation	pelvis_tx	pelvis_ty	pelvis_tz	hip_flexion_r	hip_adduction_r	hip_rotation_r	knee_angle_r	ankle_angle_r	subtalar_angle_r	hip_flexion_l	hip_adduction_l	hip_rotation_l	knee_angle_l	ankle_angle_l	subtalar_angle_l	lumbar_extension	lumbar_bending	lumbar_rotation
      0.77000000	      5.83238052	     -2.82487316	     38.89819076	     -0.01022119	      0.92199995	      0.55730607	      6.25391626	      2.61885840	     -1.81731909	    -22.25544279	      6.44520458	      5.52754902	     15.06681640	     -6.65616397	     -7.26712364	    -69.39914310	     -5.77243859	     -6.27963760	     -8.95392029	      1.17914917	      0.13842573
      0.78000000	      5.56235413	     -2.34657942	     39.17813561	     -0.00305935	      0.92316826	      0.55207628	      5.31362475	      2.09320813	     -1.97714660	    -21.87878928	      6.81985126	      5.43106427	     16.07836312	     -6.30950653	     -8.48367975	    -68.65998614	     -4.56560067	     -5.93210681	     -9.07673960	      0.56093862	      1.05013704
      0.79000000	      5.31979811	     -1.91289577	     39.45603682	      0.00405318	      0.92414881	      0.54682086	      4.37865972	      1.62155119	     -2.15531636	    -21.49946343	      7.17372115	      5.35775505	     17.02213402	     -6.05925224	     -9.71373963	    -67.71070106	     -3.38372492	     -5.51424236	     -9.19499296	      0.00214575	      1.93029283
      0.80000000	      5.10863499	     -1.52574876	     39.75186759	      0.01110311	      0.92492433	      0.54153263	      3.44961225	      1.20874102	     -2.37073038	    -21.12391043	      7.51231443	      5.30344029	     17.90478318	     -5.89562224	    -10.91880194	    -66.56353321	     -2.24292434	     -5.03843795	     -9.31346886	     -0.49294600	      2.75730853
      0.81000000	      4.91576757	     -1.20061370	     40.07590445	      0.01808881	      0.92544297	      0.53620025	      2.54681942	      0.86011337	     -2.62465275	    -20.75458591	      7.86408083	      5.27704733	     18.75564589	     -5.81124278	    -12.07316171	    -65.23235579	     -1.14568894	     -4.58414523	     -9.40938293	     -0.92101427	      3.52387844
      0.82000000	      4.75137308	     -0.92349774	     40.43314354	      0.02500499	      0.92573861	      0.53080488	      1.65361907	      0.57296592	     -2.92212984	    -20.39345145	      8.21503635	      5.26877747	     19.55180664	     -5.78466864	    -13.16026775	    -63.70860648	     -0.12566431	     -4.17562304	     -9.50286066	     -1.28495405	      4.21567805
      0.83000000	      4.61271625	     -0.68800168	     40.81682665	      0.03186831	      0.92581766	      0.52534365	      0.76823840	      0.34253700	     -3.25145174	    -20.04321231	      8.57627230	      5.27934721	     20.28572771	     -5.80483664	    -14.18858193	    -61.98970375	      0.80476997	     -3.86458970	     -9.59599225	     -1.59484619	      4.83482443
      0.84000000	      4.50173700	     -0.49204960	     41.22060740	      0.03868198	      0.92569918	      0.51980826	     -0.11206793	      0.16967087	     -3.60500039	    -19.70265249	      8.94139577	      5.30368352	     20.94652540	     -5.86103691	    -15.15792172	    -60.06663416	      1.63365846	     -3.68167924	     -9.69047693	     -1.85147508	      5.39466084
      0.85000000	      4.41841941	     -0.32491719	     41.62931664	      0.04546231	      0.92540792	      0.51419683	     -0.99243673	      0.04674340	     -3.96404676	    -19.37458278	      9.30556494	      5.33095991	     21.51518037	     -5.94448181	    -16.09549776	    -57.93211053	      2.35399911	     -3.62496366	     -9.79133797	     -2.06589588	      5.90618903
      0.86000000	      4.36049148	     -0.18152237	     42.02286742	      0.05221528	      0.92496183	      0.50851988	     -1.87011664	     -0.03339398	     -4.31233810	    -19.06060107	      9.66488121	      5.35059134	     21.98027280	     -6.05069332	    -17.03264410	    -55.58249223	      2.96582972	     -3.67756214	     -9.90024579	     -2.24588998	      6.38225927
      0.87000000	      4.32513048	     -0.06104010	     42.38498899	      0.05894189	      0.92436957	      0.50278863	     -2.73641794	     -0.07429965	     -4.63301476	    -18.76901883	     10.01703811	      5.35875076	     22.33999292	     -6.18043735	    -18.00608354	    -53.02455553	      3.45546834	     -3.81476199	    -10.01074650	     -2.39580126	      6.84381125
      0.88000000	      4.30856429	      0.04032482	     42.69878132	      0.06562947	      0.92365265	      0.49699547	     -3.59077521	     -0.08689179	     -4.90358618	    -18.49410165	     10.35377991	      5.35827800	     22.58815308	     -6.31791236	    -19.02683229	    -50.25737917	      3.83002468	     -4.02049381	    -10.12272082	     -2.52126616	      7.32700412
      0.89000000	      4.30735370	      0.12628219	     42.95532785	      0.07228766	      0.92282041	      0.49113275	     -4.43058912	     -0.08041263	     -5.11527436	    -18.23994264	     10.67230290	      5.35596161	     22.72474693	     -6.46819755	    -20.14871167	    -47.30106064	      4.09549532	     -4.27689221	    -10.23180364	     -2.62694444	      7.80524379
      0.90000000	      4.31731915	      0.18787774	     43.15620194	      0.07889476	      0.92186394	      0.48516796	     -5.24190191	     -0.05765316	     -5.27640330	    -18.01554166	     10.97559252	      5.35921978	     22.77023079	     -6.62727553	    -21.38276859	    -44.18611384	      4.27231593	     -4.54816383	    -10.32391596	     -2.70157942	      8.29013933
      0.91000000	      4.33662202	      0.23445619	     43.30019983	      0.08547814	      0.92080981	      0.47909394	     -6.03036032	     -0.02982679	     -5.39146120	    -17.82326886	     11.26938169	      5.37303845	     22.72546259	     -6.78128457	    -22.73689588	    -40.93513459	      4.38916933	     -4.80074449	    -10.40100208	     -2.76171668	      8.78930479
      0.92000000	      4.36236633	      0.26198532	     43.40991506	      0.09198685	      0.91965298	      0.47283632	     -6.79617849	     -0.00163505	     -5.47807576	    -17.65815740	     11.53957197	      5.40313109	     22.62050799	     -6.91098493	    -24.18282914	    -37.59612596	      4.49185954	     -4.98978038	    -10.45588744	     -2.78995955	      9.28823269
      0.93000000	      4.38322319	      0.25136669	     43.49244686	      0.09842996	      0.91836604	      0.46641284	     -7.51236091	      0.03389936	     -5.55094270	    -17.52999574	     11.79700681	      5.45181268	     22.50655949	     -7.01840925	    -25.68814001	    -34.22447074	      4.61382256	     -5.05708348	    -10.46334535	     -2.78421793	      9.77513055
      0.94000000	      4.36564252	      0.16559347	     43.53758079	      0.10477775	      0.91687222	      0.45985701	     -8.10035485	      0.07349657	     -5.60307982	    -17.48046226	     12.06670089	      5.50876821	     22.46935131	     -7.11200527	    -27.23396505	    -30.88805446	      4.78494075	     -4.98239036	    -10.37053632	     -2.73675417	     10.27623531
      0.95000000	      4.35134606	      0.06612628	     43.59588490	      0.11101448	      0.91530330	      0.45308055	     -8.68069073	      0.10821115	     -5.68741770	    -17.44085797	     12.29251288	      5.59789892	     22.44268393	     -7.14498835	    -28.71455514	    -27.60702975	      5.03725350	     -4.76349326	    -10.26117381	     -2.65979465	     10.70319401
      0.96000000	      4.34466726	     -0.05736448	     43.66825283	      0.11711709	      0.91366626	      0.44613042	     -9.24502227	      0.15267821	     -5.76879401	    -17.41222075	     12.47748395	      5.75164904	     22.44732359	     -7.12715350	    -30.03491889	    -24.41926547	      5.33820950	     -4.32872078	    -10.13992866	     -2.54309768	     11.06231752
      0.97000000	      4.30275206	     -0.26706796	     43.70798043	      0.12313145	      0.91184682	      0.43910149	     -9.66184908	      0.20937782	     -5.84531884	    -17.48619302	     12.64457575	      5.93295903	     22.57989743	     -7.12227345	    -31.24135524	    -21.41325322	      5.67033053	     -3.77213764	     -9.91941256	     -2.38213654	     11.44214706
      0.98000000	      4.22564938	     -0.53919743	     43.71184024	      0.12909904	      0.90990051	      0.43197417	     -9.96604345	      0.26150178	     -5.89492873	    -17.63026434	     12.76849256	      6.12383584	     22.82086545	     -7.13339822	    -32.35677685	    -18.64643296	      5.99317055	     -3.19053808	     -9.61622777	     -2.19777550	     11.82714813
      0.99000000	      4.21883011	     -0.81968582	     43.71761259	      0.13501208	      0.90800794	      0.42470817	    -10.31047654	      0.35815471	     -5.89589746	    -17.79290696	     12.81505607	      6.45153924	     23.04223832	     -7.18477660	    -33.25138806	    -16.14148014	      6.26291986	     -2.29810078	     -9.37040417	     -1.94771001	     12.17339615
      1.00000000	      4.18747698	     -1.14501234	     43.65368561	      0.14099251	      0.90607069	      0.41734482	    -10.56913079	      0.44215084	     -5.80779299	    -18.01677345	     12.80101684	      6.74677201	     23.35318382	     -7.31231299	    -34.15361377	    -14.03803976	      6.42274816	     -1.55742519	     -9.05503909	     -1.69274951	     12.58892528
